# xmcd
#
# Track frame offsets:
#	150
#	10303
#	19964
#	36232
#	47286
#	58642
#	70900
#	83201
#	96751
#	113021
#	125104
#	136769
#	150020
#	160886
#	171171
#	189475
#	201266
#	210449
#	220829
#	235436
#
# Disc length: 3402
#
# Revision: 1
# Processed by: cddbd v1.5.1PL0 Copyright (c) Steve Scherf et al.
# Submitted via: dBpowerAMP V4.0
# Normalized: r0:TDELIM( - )
#
DISCID=0c0d4814
DTITLE=Various Artist - King Of The Road
DYEAR=1900
DGENRE=Trucking Songs
TTITLE0=Faron Young - Kinks Of The Road
TTITLE1=Dave Dudley - Six Days On The Road
TTITLE2=Johnny Cash - City Of New Orleans (Live)
TTITLE3=Red Sovine - Women Behind The Men Behind The Wheel
TTITLE4=John Davis Band - The Race Is On (Inst)
TTITLE5=Jonny Dollar - Big Rig Rollin'
TTITLE6=Bob Willis and His Texas Playboys - Take Me Back To Tulsa
TTITLE7=Red Simpson - I Got A Beaver On My Tail
TTITLE8=Mac Wiseman - Wheels Hummin' Home, Sweet Home
TTITLE9=Kenny Rogers - Me And Bobby McGee
TTITLE10=Don Williams With The Pozo Seco Singers - Follow Me Back To Louisville
TTITLE11=Jack Green - California Turnaround
TTITLE12=Delaney's All Stars - Walk On By
TTITLE13=Willie Nelson - On The Road Again (Live)
TTITLE14=Bobby Bare - The Jogger
TTITLE15=Johnny Dollar - Big Wheel Singing For Me
TTITLE16=Dave Dudley - Keep On Truckin'
TTITLE17=Red Sovine - Long Night
TTITLE18=Buckaroos - Rollin' Back To Tennessee
TTITLE19=Pat O'Sullivan - Margaritaville
EXTD=
EXTT0=
EXTT1=
EXTT2=
EXTT3=
EXTT4=
EXTT5=
EXTT6=
EXTT7=
EXTT8=
EXTT9=
EXTT10=
EXTT11=
EXTT12=
EXTT13=
EXTT14=
EXTT15=
EXTT16=
EXTT17=
EXTT18=
EXTT19=
PLAYORDER=
